<svg xmlns="http://www.w3.org/2000/svg" viewBox="0 0 24 24" fill="none" shape-rendering="auto" width="128" height="128"><metadata xmlns:rdf="http://www.w3.org/1999/02/22-rdf-syntax-ns#" xmlns:xsi="http://www.w3.org/2001/XMLSchema-instance" xmlns:dc="http://purl.org/dc/elements/1.1/" xmlns:dcterms="http://purl.org/dc/terms/"><rdf:RDF><rdf:Description><dc:title>Bootstrap Icons</dc:title><dc:creator>The Bootstrap Authors</dc:creator><dc:source xsi:type="dcterms:URI">https://github.com/twbs/icons</dc:source><dcterms:license xsi:type="dcterms:URI">https://github.com/twbs/icons/blob/main/LICENSE</dcterms:license><dc:rights>„Bootstrap Icons” (https://github.com/twbs/icons) by „The Bootstrap Authors”, licensed under „MIT” (https://github.com/twbs/icons/blob/main/LICENSE)</dc:rights></rdf:Description></rdf:RDF></metadata><mask id="viewboxMask"><rect width="24" height="24" rx="12" ry="12" x="0" y="0" fill="#fff" /></mask><g mask="url(#viewboxMask)"><rect fill="#81d4fa" width="24" height="24" x="0" y="0" /><g transform="translate(4 4)"><g fill="#fff"><path d="M4.968 9.75a.5.5 0 1 0-.866.5 4.498 4.498 0 0 0 6.149 1.647 4.499 4.499 0 0 0 1.647-1.647.5.5 0 1 0-.866-.5 3.498 3.498 0 0 1-4.783 1.282A3.498 3.498 0 0 1 4.968 9.75ZM7 5.116V5a1 1 0 0 0-1-1H3.28a1 1 0 0 0-.97 1.243l.311 1.242A2 2 0 0 0 4.561 8H5a2 2 0 0 0 1.994-1.839A2.99 2.99 0 0 1 8 6c.393 0 .74.064 1.006.161A2 2 0 0 0 11 8h.438a2 2 0 0 0 1.94-1.515l.311-1.242A1 1 0 0 0 12.72 4H10a1 1 0 0 0-1 1v.116A4.22 4.22 0 0 0 8 5c-.35 0-.69.04-1 .116Z"/><path d="M16 8A8 8 0 1 1-.001 8 8 8 0 0 1 16 8Zm-1 0A7 7 0 1 0 1 8a7 7 0 0 0 14 0Z"/></g></g></g></svg>